# xmcd
#
# Track frame offsets: 
#        150
#        13725
#        25125
#        34725
#        47475
#        60300
#        71100
#        85875
#        97200
#        109350
#        122475
#
# Disc length: 1689 seconds
#
# Revision: 0
# Processed by: cddbd v1.5.2PL0 Copyright (c) Steve Scherf et al.
# Submitted via: ExactAudioCopyFreeDBPlugin 1.0
#
DISCID=8f06970b
DTITLE=Wado - Vazio Tropical
DYEAR=1900
DGENRE=
TTITLE0=Cidade Grande
TTITLE1=Rosa
TTITLE2=Canto dos Insetos
TTITLE3=Carne
TTITLE4=Flores do Bem
TTITLE5=Quarto Sem Porta
TTITLE6=Zelo
TTITLE7=Tão Feliz
TTITLE8=Primavera Árabe
TTITLE9=Cais Abandonado
TTITLE10=Vazio Tropical
EXTD=
EXTT0=
EXTT1=
EXTT2=
EXTT3=
EXTT4=
EXTT5=
EXTT6=
EXTT7=
EXTT8=
EXTT9=
EXTT10=
PLAYORDER=
